<?xml version="1.0" standalone="no"?>
<!DOCTYPE svg PUBLIC "-//W3C//DTD SVG 20010904//EN"
 "http://www.w3.org/TR/2001/REC-SVG-20010904/DTD/svg10.dtd">
<svg version="1.0" xmlns="http://www.w3.org/2000/svg"
 width="665.000000pt" height="665.000000pt" viewBox="0 0 665.000000 665.000000"
 preserveAspectRatio="xMidYMid meet">
<metadata>
Created by potrace 1.14, written by Peter Selinger 2001-2017
</metadata>
<g transform="translate(0.000000,665.000000) scale(0.100000,-0.100000)"
fill="#000000" stroke="none">
<path d="M0 3325 l0 -3325 3325 0 3325 0 0 3325 0 3325 -3325 0 -3325 0 0
-3325z m3999 3016 c33 -10 80 -30 103 -44 51 -29 148 -129 148 -151 0 -8 -17
-48 -37 -88 -21 -40 -42 -84 -48 -98 -7 -17 -38 -39 -100 -70 -49 -26 -157
-81 -238 -123 -82 -42 -154 -77 -161 -77 -49 0 -545 -260 -668 -350 -26 -19
-99 -70 -162 -113 -63 -44 -165 -125 -226 -180 -61 -56 -132 -118 -158 -137
-26 -19 -76 -66 -112 -104 -36 -37 -117 -123 -180 -190 -132 -138 -324 -372
-422 -514 -37 -53 -72 -102 -77 -109 -6 -6 -28 -40 -49 -75 -22 -34 -65 -99
-95 -143 -176 -252 -271 -432 -344 -660 -78 -239 -113 -391 -113 -490 0 -101
35 -294 78 -430 22 -70 120 -296 136 -314 7 -9 21 -30 29 -47 9 -18 45 -63 79
-102 35 -38 90 -101 124 -138 107 -121 430 -321 579 -358 109 -28 388 -84 480
-96 140 -19 554 -8 740 19 235 34 355 63 470 116 28 12 71 30 95 38 44 15 132
60 235 119 28 16 84 45 125 65 41 19 100 53 130 75 30 21 108 76 172 121 157
110 286 224 415 368 59 66 110 119 114 119 15 0 122 143 151 202 16 35 40 76
52 93 11 16 26 39 32 50 5 11 31 58 56 105 54 100 108 247 140 380 26 107 29
253 9 420 -6 52 -13 122 -16 155 -3 33 -13 87 -21 120 -20 76 -82 229 -103
252 -9 10 -29 36 -45 58 -45 60 -182 200 -261 265 -171 140 -383 203 -685 204
-144 1 -232 -11 -370 -51 -72 -20 -269 -105 -323 -138 -202 -126 -255 -161
-277 -180 -14 -12 -57 -43 -95 -68 -39 -26 -96 -68 -127 -94 -31 -27 -90 -75
-130 -108 -105 -87 -155 -142 -190 -210 -17 -33 -47 -85 -67 -115 -72 -109
-261 -502 -281 -584 -27 -107 -27 -228 0 -300 48 -126 228 -216 410 -203 132
10 510 111 615 165 75 38 383 324 437 405 165 247 198 300 207 334 16 57 14
66 -24 110 -34 40 -35 41 -122 48 -49 3 -120 15 -160 25 -39 10 -104 22 -143
26 -82 8 -94 19 -79 80 5 21 13 73 19 114 16 136 50 257 83 307 28 40 45 52
137 94 160 72 222 82 443 69 343 -20 376 -27 487 -101 66 -44 113 -93 128
-134 25 -69 82 -461 82 -568 0 -140 -23 -289 -59 -385 -16 -42 -33 -88 -36
-102 -11 -38 -114 -241 -140 -275 -12 -16 -64 -92 -115 -169 -111 -164 -175
-231 -336 -348 -65 -49 -153 -115 -196 -147 -76 -60 -131 -92 -178 -106 -14
-4 -70 -25 -125 -47 -55 -22 -127 -46 -160 -54 -33 -7 -123 -29 -200 -49 -182
-45 -285 -57 -535 -62 -252 -6 -404 8 -520 47 -328 110 -398 142 -492 226
-116 104 -208 256 -249 413 -15 61 -19 109 -19 260 1 242 12 350 56 540 80
341 143 503 329 846 63 117 219 345 292 428 113 129 258 252 422 360 233 152
358 228 416 252 22 9 75 35 118 57 42 22 89 43 105 48 15 5 77 27 137 50 111
41 205 61 460 95 117 16 162 17 455 7 271 -9 339 -15 410 -32 47 -12 126 -24
175 -27 79 -5 101 -11 181 -49 51 -24 95 -44 98 -44 4 0 60 -28 124 -62 121
-65 124 -68 423 -352 52 -50 114 -119 137 -153 51 -75 122 -223 150 -313 24
-79 115 -462 136 -580 22 -116 22 -598 1 -718 -8 -45 -17 -116 -20 -157 -6
-77 -36 -208 -60 -260 -14 -29 -27 -65 -104 -290 -36 -105 -55 -145 -103 -225
-82 -136 -134 -214 -180 -271 -177 -220 -226 -277 -348 -402 -90 -92 -170
-164 -240 -214 -58 -40 -127 -92 -155 -114 -93 -74 -359 -246 -480 -310 -309
-163 -347 -177 -720 -273 -93 -24 -213 -56 -265 -70 -161 -45 -335 -57 -635
-46 -280 11 -299 13 -569 66 -99 19 -200 37 -225 40 -25 3 -93 19 -151 35 -58
17 -181 50 -275 74 -190 48 -260 74 -368 140 -40 24 -107 59 -148 76 -103 44
-199 108 -273 183 -99 101 -259 277 -286 316 -13 19 -30 41 -38 49 -7 7 -28
45 -47 85 -19 39 -57 107 -86 151 -73 111 -96 168 -104 253 -9 88 -23 144 -62
237 -61 145 -65 177 -60 551 3 298 6 350 25 431 25 114 38 155 67 213 23 46
42 101 109 310 34 108 113 278 160 345 12 16 55 86 96 155 115 189 211 344
219 350 3 3 21 28 40 55 275 400 820 950 1341 1354 47 36 87 68 90 72 26 32
270 173 365 211 22 9 90 36 150 60 61 25 146 59 190 77 127 51 165 61 404 101
259 44 361 49 450 21z"/>
</g>
</svg>
